<?xml version="1.0" encoding="utf-8"?>
<!-- Generator: Adobe Illustrator 19.2.0, SVG Export Plug-In . SVG Version: 6.00 Build 0)  -->
<svg version="1.1" id="Layer_1" xmlns="http://www.w3.org/2000/svg" xmlns:xlink="http://www.w3.org/1999/xlink" x="0px" y="0px"
	 viewBox="0 0 91.5 65.1" style="enable-background:new 0 0 91.5 65.1;" xml:space="preserve">
<style type="text/css">
	.st0{fill:url(#SVGID_1_);}
	.st1{fill:url(#SVGID_2_);}
	.st2{fill:#0F0F0F;}
</style>
<g>
	<g transform="translate(0 0) scale(1)">
		<linearGradient id="SVGID_1_" gradientUnits="userSpaceOnUse" x1="22.6002" y1="33.3332" x2="25.3202" y2="25.434">
			<stop  offset="0" style="stop-color:#8711C1"/>
			<stop  offset="1" style="stop-color:#2472FC"/>
		</linearGradient>
		<path class="st0" d="M29.6,28.9c-0.1-0.2-0.1-0.3-0.1-0.5c0-0.2,0.1-0.4,0.2-0.6l0.2-0.1c0.1,0,0.2,0,0.3-0.1c0-0.1,0-0.2-0.1-0.3
			c-0.1,0-0.1,0-0.2,0l-5.3-2.1c-0.2-0.1-0.4,0-0.6,0.1l-5.8,4.2c0,0,0,0,0,0l0,0c-0.2,0.3-0.3,0.6-0.3,1c0,0.3,0.1,0.7,0.3,1l0,0
			l5.3,2.1c0.1,0,0.1,0,0.2,0c0.1,0,0.3,0,0.4-0.1l2.9-2.1l2.9-2.1c0.1-0.1,0.1-0.2,0-0.3c0,0,0,0,0,0
			C29.8,28.9,29.7,28.9,29.6,28.9z M24.2,26.6l3.3,1.3l-1.2,0.9L23,27.5C23,27.5,24.2,26.6,24.2,26.6z M26.7,31.1l-2.9,2.1
			c0,0-0.1,0-0.2,0l-5.2-2.1c-0.2-0.4-0.3-0.8-0.1-1.2l5.1,2c0.1,0,0.1,0,0.2,0c0.1,0,0.3,0,0.4-0.1l5.2-3.8c0,0.1,0,0.2,0,0.3
			c0,0.2,0.1,0.5,0.2,0.7C29.4,29.1,26.7,31.1,26.7,31.1z"/>
		<linearGradient id="SVGID_2_" gradientUnits="userSpaceOnUse" x1="19.3337" y1="33.5668" x2="20.1718" y2="31.1327">
			<stop  offset="0" style="stop-color:#8711C1"/>
			<stop  offset="1" style="stop-color:#2472FC"/>
		</linearGradient>
		<path class="st1" d="M20.5,31.3L19,30.7c0,0-0.1,0-0.1,0c0,0,0,0.1,0,0.1v2.4c0,0,0,0.1,0.1,0.1c0,0,0.1,0,0.1,0l0.7-0.4l0.7,1
			c0,0,0.1,0.1,0.1,0c0,0,0.1-0.1,0.1-0.1v-2.4C20.6,31.4,20.6,31.4,20.5,31.3z"/>
	</g>
</g>
<g>
	<path class="st2" d="M35.7,27v2.8c0,0.6-0.2,1.1-0.5,1.4s-0.8,0.5-1.5,0.5s-1.1-0.2-1.5-0.5s-0.5-0.8-0.5-1.4V27h1v2.8
		c0,0.4,0.1,0.7,0.2,0.9c0.2,0.2,0.4,0.3,0.8,0.3c0.3,0,0.6-0.1,0.8-0.3c0.2-0.2,0.2-0.5,0.2-0.9V27H35.7z"/>
	<path class="st2" d="M36.8,31.6V27h2c0.6,0,1,0.1,1.2,0.3c0.3,0.2,0.4,0.5,0.4,0.9c0,0.2-0.1,0.5-0.2,0.7c-0.1,0.2-0.4,0.3-0.7,0.4
		v0c0.3,0,0.6,0.2,0.7,0.4c0.2,0.2,0.3,0.4,0.3,0.7c0,0.4-0.1,0.7-0.4,0.9c-0.3,0.2-0.7,0.3-1.3,0.3H36.8z M37.7,29h1
		c0.5,0,0.8-0.2,0.8-0.6s-0.3-0.6-0.8-0.6h-1V29z M37.7,30.9h1.1c0.3,0,0.5-0.1,0.6-0.2c0.1-0.1,0.2-0.3,0.2-0.4
		c0-0.2-0.1-0.3-0.2-0.4c-0.1-0.1-0.3-0.2-0.6-0.2h-1.1V30.9z"/>
	<path class="st2" d="M45.5,30.4c-0.1,0.3-0.2,0.5-0.4,0.7c-0.2,0.2-0.4,0.4-0.7,0.4c-0.3,0.1-0.5,0.1-0.9,0.1
		c-0.5,0-0.9-0.1-1.2-0.3c-0.3-0.2-0.6-0.5-0.8-0.8c-0.2-0.4-0.3-0.8-0.3-1.3s0.1-0.9,0.3-1.3s0.4-0.6,0.8-0.8
		C42.7,27,43,27,43.5,27c0.3,0,0.6,0,0.9,0.1c0.3,0.1,0.5,0.2,0.7,0.4s0.3,0.4,0.4,0.7l-0.9,0.4c-0.1-0.3-0.2-0.5-0.4-0.6
		c-0.2-0.1-0.4-0.2-0.6-0.2c-0.3,0-0.5,0.1-0.7,0.2c-0.2,0.1-0.3,0.3-0.4,0.5c-0.1,0.2-0.2,0.5-0.2,0.9c0,0.3,0,0.6,0.1,0.9
		c0.1,0.2,0.2,0.4,0.4,0.5c0.2,0.1,0.4,0.2,0.7,0.2c0.3,0,0.5-0.1,0.7-0.2c0.2-0.1,0.3-0.3,0.4-0.6L45.5,30.4z"/>
	<path class="st2" d="M52.4,30.4c-0.1,0.3-0.2,0.5-0.4,0.7s-0.4,0.4-0.7,0.4c-0.3,0.1-0.5,0.1-0.9,0.1c-0.5,0-0.9-0.1-1.2-0.3
		s-0.6-0.5-0.8-0.8c-0.2-0.4-0.3-0.8-0.3-1.3s0.1-0.9,0.3-1.3s0.4-0.6,0.8-0.8S50,27,50.4,27c0.3,0,0.6,0,0.9,0.1
		c0.3,0.1,0.5,0.2,0.7,0.4s0.3,0.4,0.4,0.7l-0.9,0.4c-0.1-0.3-0.2-0.5-0.4-0.6c-0.2-0.1-0.4-0.2-0.6-0.2c-0.3,0-0.5,0.1-0.7,0.2
		c-0.2,0.1-0.3,0.3-0.4,0.5c-0.1,0.2-0.2,0.5-0.2,0.9c0,0.3,0,0.6,0.1,0.9c0.1,0.2,0.2,0.4,0.4,0.5c0.2,0.1,0.4,0.2,0.7,0.2
		c0.3,0,0.5-0.1,0.7-0.2s0.3-0.3,0.4-0.6L52.4,30.4z"/>
	<path class="st2" d="M54.7,28.1c0.4,0,0.7,0.1,0.9,0.2s0.5,0.4,0.6,0.6c0.2,0.3,0.2,0.6,0.2,1c0,0.4-0.1,0.7-0.2,1
		c-0.2,0.3-0.4,0.5-0.6,0.6s-0.6,0.2-0.9,0.2c-0.3,0-0.7-0.1-0.9-0.2s-0.5-0.4-0.6-0.6s-0.2-0.6-0.2-1c0-0.4,0.1-0.7,0.2-1
		s0.4-0.5,0.6-0.6S54.4,28.1,54.7,28.1z M54.7,28.8c-0.2,0-0.3,0-0.5,0.1C54.1,29,54,29.1,54,29.3c-0.1,0.2-0.1,0.4-0.1,0.6
		c0,0.2,0,0.5,0.1,0.6c0.1,0.2,0.2,0.3,0.3,0.4c0.1,0.1,0.3,0.1,0.5,0.1c0.2,0,0.3,0,0.4-0.1c0.1-0.1,0.2-0.2,0.3-0.4
		c0.1-0.2,0.1-0.4,0.1-0.6c0-0.2,0-0.5-0.1-0.6c-0.1-0.2-0.2-0.3-0.3-0.4C55,28.8,54.9,28.8,54.7,28.8z"/>
	<path class="st2" d="M58.5,31.7c-0.2,0-0.4,0-0.6-0.1s-0.3-0.2-0.4-0.4c-0.1-0.2-0.2-0.4-0.2-0.7v-2.3h1v2.1c0,0.3,0.1,0.5,0.2,0.6
		c0.1,0.1,0.3,0.2,0.5,0.2c0.1,0,0.2,0,0.3-0.1c0.1,0,0.2-0.1,0.2-0.2c0.1-0.1,0.1-0.2,0.2-0.3c0-0.1,0.1-0.3,0.1-0.4v-1.9h1v3.5
		h-0.9l0-0.6c-0.1,0.2-0.3,0.4-0.5,0.5C59.1,31.7,58.8,31.7,58.5,31.7z"/>
	<path class="st2" d="M61.6,31.6v-3.5h0.8l0.1,0.7c0.1-0.2,0.2-0.4,0.4-0.6c0.2-0.1,0.4-0.2,0.7-0.2c0.1,0,0.2,0,0.2,0
		c0.1,0,0.1,0,0.2,0.1L63.9,29c0,0-0.1,0-0.2,0c-0.1,0-0.2,0-0.3,0c-0.1,0-0.3,0-0.4,0.1c-0.1,0.1-0.2,0.2-0.3,0.3s-0.1,0.3-0.1,0.5
		v1.8H61.6z"/>
	<path class="st2" d="M65.9,31.7c-0.4,0-0.7-0.1-1-0.2s-0.5-0.3-0.7-0.5l0.6-0.6c0.1,0.2,0.3,0.3,0.4,0.4s0.4,0.2,0.7,0.2
		c0.2,0,0.3,0,0.4-0.1c0.1-0.1,0.2-0.1,0.2-0.3c0-0.1,0-0.1-0.1-0.2c-0.1-0.1-0.2-0.1-0.3-0.1l-0.6-0.1c-0.4-0.1-0.7-0.2-0.9-0.4
		c-0.2-0.2-0.3-0.4-0.3-0.7c0-0.2,0.1-0.4,0.2-0.5c0.1-0.2,0.3-0.3,0.5-0.4s0.5-0.2,0.9-0.2c0.3,0,0.7,0.1,0.9,0.2
		c0.3,0.1,0.5,0.3,0.6,0.5l-0.6,0.6c-0.1-0.2-0.2-0.3-0.4-0.4c-0.2-0.1-0.3-0.1-0.5-0.1c-0.1,0-0.2,0-0.3,0c-0.1,0-0.2,0.1-0.2,0.1
		c0,0-0.1,0.1-0.1,0.2s0,0.1,0.1,0.2c0.1,0.1,0.2,0.1,0.4,0.1l0.7,0.1c0.3,0.1,0.6,0.2,0.7,0.4c0.1,0.2,0.2,0.4,0.2,0.6
		c0,0.2-0.1,0.4-0.2,0.6c-0.1,0.2-0.3,0.3-0.5,0.4C66.5,31.7,66.2,31.7,65.9,31.7z"/>
	<path class="st2" d="M69.8,31.7c-0.4,0-0.7-0.1-1-0.2c-0.3-0.1-0.5-0.4-0.6-0.6s-0.2-0.6-0.2-1s0.1-0.7,0.2-1s0.4-0.5,0.6-0.6
		s0.6-0.2,0.9-0.2c0.4,0,0.7,0.1,0.9,0.2c0.2,0.1,0.4,0.3,0.6,0.6s0.2,0.5,0.2,0.8c0,0.1,0,0.2,0,0.3c0,0.1,0,0.2,0,0.2h-2.8v-0.7
		H71l-0.5,0.2c0-0.3-0.1-0.5-0.2-0.7s-0.3-0.2-0.6-0.2c-0.2,0-0.3,0-0.5,0.1c-0.1,0.1-0.2,0.2-0.3,0.4c-0.1,0.2-0.1,0.4-0.1,0.6
		c0,0.2,0,0.5,0.1,0.6c0.1,0.2,0.2,0.3,0.3,0.4c0.1,0.1,0.3,0.1,0.5,0.1c0.2,0,0.4,0,0.5-0.1c0.1-0.1,0.2-0.2,0.3-0.3l0.8,0.3
		c-0.1,0.2-0.2,0.3-0.3,0.5c-0.2,0.1-0.3,0.2-0.5,0.3C70.3,31.7,70.1,31.7,69.8,31.7z"/>
	<path class="st2" d="M73.7,31.7c-0.4,0-0.7-0.1-1-0.2S72.2,31.2,72,31l0.6-0.6c0.1,0.2,0.3,0.3,0.4,0.4s0.4,0.2,0.7,0.2
		c0.2,0,0.3,0,0.4-0.1c0.1-0.1,0.2-0.1,0.2-0.3c0-0.1,0-0.1-0.1-0.2c-0.1-0.1-0.2-0.1-0.3-0.1l-0.6-0.1c-0.4-0.1-0.7-0.2-0.9-0.4
		c-0.2-0.2-0.3-0.4-0.3-0.7c0-0.2,0.1-0.4,0.2-0.5c0.1-0.2,0.3-0.3,0.5-0.4s0.5-0.2,0.9-0.2c0.3,0,0.7,0.1,0.9,0.2
		c0.3,0.1,0.5,0.3,0.6,0.5l-0.6,0.6c-0.1-0.2-0.2-0.3-0.4-0.4c-0.2-0.1-0.3-0.1-0.5-0.1c-0.1,0-0.2,0-0.3,0c-0.1,0-0.2,0.1-0.2,0.1
		c0,0-0.1,0.1-0.1,0.2s0,0.1,0.1,0.2c0.1,0.1,0.2,0.1,0.4,0.1l0.7,0.1c0.3,0.1,0.6,0.2,0.7,0.4c0.1,0.2,0.2,0.4,0.2,0.6
		c0,0.2-0.1,0.4-0.2,0.6c-0.1,0.2-0.3,0.3-0.5,0.4C74.3,31.7,74,31.7,73.7,31.7z"/>
</g>
</svg>
