<svg id="Layer_1" data-name="Layer 1" xmlns="http://www.w3.org/2000/svg" xmlns:xlink="http://www.w3.org/1999/xlink" viewBox="0 0 1263.83 194.27"><defs><style>.cls-1{fill:url(#linear-gradient);}.cls-2{fill:url(#linear-gradient-2);}.cls-3{fill:url(#linear-gradient-3);}.cls-4{fill:url(#linear-gradient-4);}.cls-5{fill:url(#linear-gradient-5);}.cls-6{fill:url(#linear-gradient-6);}.cls-7{fill:url(#linear-gradient-7);}.cls-8{fill:url(#linear-gradient-8);}.cls-9{fill:url(#linear-gradient-9);}.cls-10{fill:url(#linear-gradient-10);}.cls-11{fill:url(#linear-gradient-11);}.cls-12{fill:url(#linear-gradient-12);}</style><linearGradient id="linear-gradient" x1="271.62" y1="432.24" x2="544.65" y2="432.24" gradientUnits="userSpaceOnUse"><stop offset="0" stop-color="#8711c1"/><stop offset="1" stop-color="#2472fc"/></linearGradient><linearGradient id="linear-gradient-2" x1="296.65" y1="497.23" x2="334.57" y2="497.23" xlink:href="#linear-gradient"/><linearGradient id="linear-gradient-3" x1="600.95" y1="479.56" x2="638.5" y2="370.52" xlink:href="#linear-gradient"/><linearGradient id="linear-gradient-4" x1="708.78" y1="487.91" x2="745.95" y2="379.94" xlink:href="#linear-gradient"/><linearGradient id="linear-gradient-5" x1="819.95" y1="480.49" x2="854.35" y2="380.57" xlink:href="#linear-gradient"/><linearGradient id="linear-gradient-6" x1="972.23" y1="480.49" x2="1006.63" y2="380.57" xlink:href="#linear-gradient"/><linearGradient id="linear-gradient-7" x1="1071.43" y1="481.49" x2="1097.8" y2="404.9" xlink:href="#linear-gradient"/><linearGradient id="linear-gradient-8" x1="1164.04" y1="483.82" x2="1193.77" y2="397.5" xlink:href="#linear-gradient"/><linearGradient id="linear-gradient-9" x1="1238.04" y1="482.1" x2="1267.23" y2="397.3" xlink:href="#linear-gradient"/><linearGradient id="linear-gradient-10" x1="1317.46" y1="482.02" x2="1344.19" y2="404.39" xlink:href="#linear-gradient"/><linearGradient id="linear-gradient-11" x1="1402.98" y1="481.39" x2="1429.28" y2="405.02" xlink:href="#linear-gradient"/><linearGradient id="linear-gradient-12" x1="1488.06" y1="482.02" x2="1514.79" y2="404.39" xlink:href="#linear-gradient"/></defs><title>logo</title><path class="cls-1" d="M532.82,422.12A26,26,0,0,1,534,397l4.09-3a4.82,4.82,0,1,0-1-8.37L421.13,339.29a14.76,14.76,0,0,0-13,1.63L279.67,434.36a4.63,4.63,0,0,0-1,1h0a34.7,34.7,0,0,0,0,41.89l0.81,1.07,117.12,46.85a13.08,13.08,0,0,0,4.78.86,14.29,14.29,0,0,0,8.2-2.48l64.24-46.72L538,430.11a4.8,4.8,0,0,0,1.07-6.71v0A4.76,4.76,0,0,0,532.82,422.12ZM412.48,370.86l72.2,28.88L458.2,419,386,390.11Zm55.67,98.19-64.24,46.71a5.09,5.09,0,0,1-3.75.47L285.6,470.4a25,25,0,0,1-1.19-26.22l112.17,44.88a13,13,0,0,0,4.77.86,14.28,14.28,0,0,0,8.22-2.48l114.5-83.27a32.35,32.35,0,0,0,3.16,21.91Z" transform="translate(-271.62 -338.46)"/><path class="cls-2" d="M333.06,475.13L300,461.9a2.41,2.41,0,0,0-3.3,2.24v53a2.41,2.41,0,0,0,3.67,2l14.62-9,15.25,21.62a2.38,2.38,0,0,0,2.69.92,2.41,2.41,0,0,0,1.68-2.3v-53A2.41,2.41,0,0,0,333.06,475.13Z" transform="translate(-271.62 -338.46)"/><path class="cls-3" d="M666.27,380.08v61.6q0,20.78-11.08,31.18t-32.34,10.39q-21.25,0-32.33-10.39t-11.08-31.18v-61.6h21.24v60.67q0,12.78,5.47,18.94t16.7,6.15q11.25,0,16.64-6.15t5.38-18.94V380.08h21.41Z" transform="translate(-271.62 -338.46)"/><path class="cls-4" d="M690.75,481.71V380.08h44.5q18.48,0,27.25,7.24t8.79,20.48a22.85,22.85,0,0,1-4.93,14.47q-4.93,6.32-14.48,8v0.15q10.63,1.55,16.33,8a22.53,22.53,0,0,1,5.69,15.39q0,13.1-9.46,20.48t-27.65,7.39h-46Zm20.63-59h21.09q16.79,0,16.79-13.08t-16.79-13.09H711.38v26.17Zm0,43h23.55q8.62,0,12.78-3.54t4.16-9.85c0-4.32-1.39-7.59-4.16-9.86s-7-3.38-12.78-3.38H711.38v26.64Z" transform="translate(-271.62 -338.46)"/><path class="cls-5" d="M881.22,453.68A40,40,0,0,1,872,470.16,39.5,39.5,0,0,1,857,480a53.46,53.46,0,0,1-18.94,3.23q-15.1,0-26.1-6.3a42.22,42.22,0,0,1-16.94-18q-5.93-11.7-5.93-28t5.93-28a42.25,42.25,0,0,1,16.94-18q11-6.32,25.79-6.32a59.06,59.06,0,0,1,18.94,2.85,36.47,36.47,0,0,1,14.4,8.77,35.57,35.57,0,0,1,8.7,14.7L860.58,413q-2.63-9.23-8-13.17t-13.85-3.92a26.31,26.31,0,0,0-14.55,4,25.7,25.7,0,0,0-9.62,11.77q-3.38,7.78-3.38,19.17t3.16,19.1a24.61,24.61,0,0,0,9.31,11.86q6.15,4,15.09,4a23.64,23.64,0,0,0,14.39-4.46q6.09-4.46,8.55-13.55Z" transform="translate(-271.62 -338.46)"/><path class="cls-6" d="M1033.49,453.68A38.94,38.94,0,0,1,1009.33,480a53.56,53.56,0,0,1-18.95,3.23q-15.08,0-26.1-6.3a42.2,42.2,0,0,1-16.93-18q-5.93-11.7-5.93-28t5.93-28a42.23,42.23,0,0,1,16.93-18q11-6.32,25.8-6.32a59,59,0,0,1,18.92,2.85,36.51,36.51,0,0,1,14.41,8.77,35.57,35.57,0,0,1,8.7,14.7L1012.87,413q-2.64-9.23-8-13.17T991,395.94a26.37,26.37,0,0,0-14.56,4,25.77,25.77,0,0,0-9.62,11.77q-3.38,7.78-3.37,19.17T966.6,450a24.59,24.59,0,0,0,9.3,11.86c4.1,2.66,9.15,4,15.1,4a23.67,23.67,0,0,0,14.39-4.46c4.06-3,6.9-7.5,8.55-13.55Z" transform="translate(-271.62 -338.46)"/><path class="cls-7" d="M1084.62,403.18a42.72,42.72,0,0,1,20.56,4.77,34.17,34.17,0,0,1,13.85,13.7q5,8.93,5,21.56,0,12.47-5,21.48a34,34,0,0,1-13.85,13.78,46.51,46.51,0,0,1-41,0,34,34,0,0,1-13.94-13.78q-5-9-5-21.48,0-12.63,5-21.56a34.12,34.12,0,0,1,13.94-13.7A42.79,42.79,0,0,1,1084.62,403.18Zm0,15.7a17.57,17.57,0,0,0-9.92,2.7,16.63,16.63,0,0,0-6.23,8.08,43.43,43.43,0,0,0,0,27.11,16.63,16.63,0,0,0,6.23,8.08,17.48,17.48,0,0,0,9.92,2.7,17.22,17.22,0,0,0,9.77-2.7,16.79,16.79,0,0,0,6.25-8.08,43.84,43.84,0,0,0,0-27.11,16.79,16.79,0,0,0-6.25-8.08A17.31,17.31,0,0,0,1084.62,418.89Z" transform="translate(-271.62 -338.46)"/><path class="cls-8" d="M1168.54,483.24a33.39,33.39,0,0,1-13.85-2.77,21.37,21.37,0,0,1-9.77-8.85q-3.61-6.07-3.61-15.78V404.72h21.09v46c0,6,1.22,10.09,3.69,12.41s6,3.46,10.61,3.46a18,18,0,0,0,6.32-1.15,14.92,14.92,0,0,0,5.48-3.62,17.38,17.38,0,0,0,3.76-6.39,28.07,28.07,0,0,0,1.4-9.32V404.72h21.09v77H1196l-0.77-13.39a25,25,0,0,1-10.55,11.31A33.28,33.28,0,0,1,1168.54,483.24Z" transform="translate(-271.62 -338.46)"/><path class="cls-9" d="M1236.89,481.71v-77h18.32l1.4,15.09a26.43,26.43,0,0,1,9-12.32c4-2.87,8.89-4.31,14.86-4.31a22.59,22.59,0,0,1,4.77.46,13,13,0,0,1,3.54,1.22l-2.47,17.71a16.22,16.22,0,0,0-3.78-.92,43.79,43.79,0,0,0-5.76-.31,19.26,19.26,0,0,0-8.94,2.23,17.92,17.92,0,0,0-7.09,6.78,21.71,21.71,0,0,0-2.77,11.47v39.88h-21.09Z" transform="translate(-271.62 -338.46)"/><path class="cls-10" d="M1330.68,483.24a53.22,53.22,0,0,1-21.33-4.16,39.74,39.74,0,0,1-15.64-11.7l12.18-12.32a28.26,28.26,0,0,0,24.47,12.62,22,22,0,0,0,9.62-1.76,5.88,5.88,0,0,0,3.63-5.63,6,6,0,0,0-1.7-4.23q-1.71-1.77-6.77-2.85l-13.55-2.77q-13.4-2.77-19-8.4T1297,427.51a20.55,20.55,0,0,1,3.78-11.86,26.68,26.68,0,0,1,11.3-9q7.54-3.46,18.8-3.46a51.16,51.16,0,0,1,20.08,3.62,30.26,30.26,0,0,1,13.47,10.7l-12.61,12.32a22.77,22.77,0,0,0-8.85-8.24,24.51,24.51,0,0,0-11.47-2.85,25.85,25.85,0,0,0-7.41.92,10.46,10.46,0,0,0-4.62,2.53,5.74,5.74,0,0,0-1.53,4.08,5.29,5.29,0,0,0,2.15,4.23q2.16,1.77,7.86,3l15.7,3.23c7.58,1.54,13,4.14,16.33,7.78a19.06,19.06,0,0,1,4.92,13.17,22.82,22.82,0,0,1-3.93,13.16,26,26,0,0,1-11.54,9.09Q1341.75,483.25,1330.68,483.24Z" transform="translate(-271.62 -338.46)"/><path class="cls-11" d="M1417.05,483.24q-12.15,0-21.18-4.77a33.56,33.56,0,0,1-13.92-13.7q-4.93-8.93-4.94-21.56t4.94-21.56a33.71,33.71,0,0,1,13.77-13.7,42,42,0,0,1,20.26-4.77q11.7,0,19.87,4.69a31.83,31.83,0,0,1,12.46,12.78,38.45,38.45,0,0,1,4.32,18.4c0,2.05-.06,4-0.15,5.85s-0.26,3.49-.47,4.92h-61.43V435.21h52.2l-10.16,3.69q0-9.71-4.38-14.94c-2.92-3.49-7.07-5.23-12.39-5.23a18,18,0,0,0-10.1,2.77,16.89,16.89,0,0,0-6.38,8.24,37.8,37.8,0,0,0-2.17,13.78q0,8.15,2.41,13.47a17,17,0,0,0,6.77,7.93,20.17,20.17,0,0,0,10.55,2.62q6.77,0,10.93-2.62a17.75,17.75,0,0,0,6.47-7.23l16.78,6.47a26.88,26.88,0,0,1-7.45,10.31,34.21,34.21,0,0,1-11.86,6.54A47.12,47.12,0,0,1,1417.05,483.24Z" transform="translate(-271.62 -338.46)"/><path class="cls-12" d="M1501.28,483.24a53.22,53.22,0,0,1-21.33-4.16,39.74,39.74,0,0,1-15.64-11.7l12.18-12.32A28.26,28.26,0,0,0,1501,467.69a22,22,0,0,0,9.62-1.76,5.88,5.88,0,0,0,3.63-5.63,6,6,0,0,0-1.7-4.23q-1.71-1.77-6.77-2.85l-13.55-2.77q-13.4-2.77-19-8.4t-5.63-14.54a20.55,20.55,0,0,1,3.78-11.86,26.68,26.68,0,0,1,11.3-9q7.54-3.46,18.8-3.46a51.16,51.16,0,0,1,20.08,3.62A30.26,30.26,0,0,1,1535,417.5l-12.61,12.32a22.77,22.77,0,0,0-8.85-8.24,24.51,24.51,0,0,0-11.47-2.85,25.85,25.85,0,0,0-7.41.92,10.46,10.46,0,0,0-4.62,2.53,5.74,5.74,0,0,0-1.53,4.08,5.29,5.29,0,0,0,2.15,4.23q2.16,1.77,7.86,3l15.7,3.23c7.58,1.54,13,4.14,16.33,7.78a19.06,19.06,0,0,1,4.92,13.17,22.82,22.82,0,0,1-3.93,13.16,26,26,0,0,1-11.54,9.09Q1512.35,483.25,1501.28,483.24Z" transform="translate(-271.62 -338.46)"/></svg>